<?xml version="1.0" standalone="no"?>
<!DOCTYPE svg PUBLIC "-//W3C//DTD SVG 20010904//EN"
 "http://www.w3.org/TR/2001/REC-SVG-20010904/DTD/svg10.dtd">
<svg version="1.0" xmlns="http://www.w3.org/2000/svg"
 width="239.000000pt" height="58.000000pt" viewBox="0 0 239.000000 58.000000"
 preserveAspectRatio="xMidYMid meet">

<g transform="translate(0.000000,58.000000) scale(0.100000,-0.100000)"
fill="#000000" stroke="none">
<path d="M1788 424 l-3 -37 -75 -3 c-41 -1 -94 -3 -116 -3 l-41 0 -5 -56 c-3
-31 -10 -61 -17 -68 -21 -21 -32 13 -25 76 6 53 5 57 -15 57 -16 0 -21 6 -21
25 0 25 0 25 -94 25 l-93 0 -7 -61 c-3 -34 -6 -93 -6 -130 l0 -69 30 0 c29 0
30 1 30 50 l0 50 45 0 c45 0 45 0 45 35 0 32 -2 35 -30 35 -20 0 -30 5 -30 15
0 16 20 19 58 9 20 -6 22 -13 22 -65 0 -76 20 -126 54 -135 39 -10 74 3 90 34
14 24 15 25 16 6 0 -14 8 -24 23 -28 41 -11 112 -6 135 10 20 14 22 14 22 0 0
-16 45 -23 53 -8 3 4 6 65 8 137 l4 130 -27 3 c-24 3 -27 0 -30 -34z m-27
-114 c13 0 19 -7 19 -24 l0 -23 -47 23 c-60 31 -66 38 -24 30 18 -3 42 -6 52
-6z m-97 -35 c47 -20 42 -28 -13 -19 -36 6 -41 10 -41 33 0 16 3 21 8 14 4 -7
25 -19 46 -28z"/>
<path d="M90 416 c0 -33 2 -36 30 -36 l30 0 0 -100 0 -100 30 0 30 0 0 95 0
95 40 0 40 0 0 -100 c0 -89 2 -100 18 -100 29 0 39 13 46 61 15 104 61 101 50
-3 l-7 -58 30 0 c23 0 32 6 40 27 10 26 11 26 12 6 1 -18 7 -23 30 -23 l29 0
-5 59 c-5 53 -3 60 18 75 39 27 49 21 49 -30 0 -62 40 -104 99 -104 41 0 61
13 88 56 10 17 12 14 12 -23 1 -38 4 -43 24 -43 38 0 50 14 42 49 -4 17 -1 47
6 68 11 34 13 35 25 18 8 -10 14 -43 14 -72 l0 -53 35 0 c29 0 35 4 35 22 0
20 1 20 20 3 28 -25 103 -32 135 -11 27 18 34 53 11 62 -8 3 -26 -2 -41 -12
-14 -9 -28 -14 -31 -11 -3 3 13 18 35 33 49 32 52 55 12 95 -38 38 -91 40
-126 4 -14 -13 -25 -32 -25 -42 -1 -12 -5 -7 -14 12 -21 49 -39 58 -97 50 -28
-4 -58 -15 -67 -24 -15 -15 -18 -14 -39 7 -23 23 -84 30 -112 13 -10 -7 -19
-5 -26 6 -9 12 -19 14 -41 8 -16 -5 -46 -7 -66 -6 -38 3 -38 2 -38 -36 l-1
-38 -14 32 c-14 34 -48 50 -85 40 -15 -4 -19 1 -22 27 -2 23 -8 32 -25 34 -17
2 -23 -2 -23 -15 0 -11 -3 -14 -8 -7 -4 7 -50 15 -104 19 l-98 7 0 -36z m625
-116 c17 -19 17 -22 3 -36 -12 -13 -20 -14 -37 -5 -24 13 -27 31 -9 49 16 16
22 15 43 -8z m358 13 c7 -6 -21 -32 -36 -33 -4 0 -3 9 3 20 11 21 22 25 33 13z"/>
<path d="M1875 365 c-20 -19 -25 -34 -25 -75 0 -44 5 -56 29 -81 23 -23 39
-29 70 -29 41 0 61 13 88 56 10 17 12 14 12 -23 1 -38 4 -43 24 -43 38 0 50
14 42 49 -4 17 -1 47 6 68 11 34 13 35 25 18 8 -10 14 -43 14 -72 l0 -53 35 0
c32 0 35 2 35 30 0 53 -22 131 -44 157 -20 23 -26 25 -75 18 -29 -4 -60 -15
-69 -24 -15 -15 -18 -14 -39 7 -32 32 -95 31 -128 -3z m90 -65 c17 -19 17 -22
3 -36 -12 -13 -20 -14 -37 -5 -24 13 -27 31 -9 49 16 16 22 15 43 -8z"/>
<path d="M1190 309 c0 -14 5 -30 11 -36 6 -6 9 -28 7 -49 -5 -58 -50 -85 -143
-85 -38 -1 -118 -3 -177 -5 -58 -2 -109 -1 -111 3 -3 5 -36 6 -73 5 l-69 -4
35 -15 c28 -12 81 -15 263 -14 294 1 291 0 288 116 -1 54 -7 85 -17 95 -12 12
-14 11 -14 -11z"/>
<path d="M2268 245 c4 -79 3 -84 -19 -98 -17 -12 -50 -16 -118 -16 -52 0 -99
3 -104 6 -6 4 -36 5 -68 4 -32 -1 -67 2 -78 8 -14 8 -22 8 -26 1 -4 -7 -58
-11 -138 -11 -73 0 -154 -3 -182 -7 -45 -7 -48 -9 -29 -19 14 -8 74 -10 215
-5 106 4 241 4 299 1 139 -9 251 -1 268 19 15 20 16 89 1 148 -18 71 -26 60
-21 -31z"/>
<path d="M1380 202 c0 -48 -14 -62 -63 -62 -34 0 -38 -2 -27 -15 7 -9 29 -15
51 -15 33 0 42 5 58 31 15 25 17 36 8 65 -14 45 -27 43 -27 -4z"/>
<path d="M575 168 c-12 -27 -60 -36 -206 -37 -76 -1 -99 2 -109 14 -9 11 -16
13 -24 5 -5 -5 -24 -10 -40 -10 -28 0 -29 -1 -15 -16 14 -13 48 -16 200 -17
161 -2 188 0 218 16 l33 19 -23 24 c-12 13 -23 24 -23 24 -1 0 -6 -10 -11 -22z"/>
</g>
</svg>
